<svg width="276.324" height="67.602" viewBox="0 0 276.324 67.602" xmlns="http://www.w3.org/2000/svg"><g id="svgGroup" stroke-linecap="round" fill-rule="evenodd" font-size="9pt" stroke="#ff5050" stroke-width="0.25mm" fill="#ffffff" style="stroke:#ff5050;stroke-width:0.25mm;fill:#ffffff"><path d="M 194.224 27.001 L 194.224 63.001 Q 194.224 64.901 192.924 66.251 Q 191.624 67.601 189.724 67.601 L 186.924 67.601 A 4.389 4.389 0 0 1 184.951 67.162 A 4.423 4.423 0 0 1 183.724 66.251 Q 182.424 64.901 182.424 63.001 L 182.424 29.101 A 1.276 1.276 0 0 0 182.028 28.151 A 1.567 1.567 0 0 0 181.974 28.101 A 1.78 1.78 0 0 0 181.622 27.853 A 1.269 1.269 0 0 0 181.024 27.701 L 171.324 27.701 A 1.286 1.286 0 0 0 170.667 27.885 A 1.836 1.836 0 0 0 170.374 28.101 Q 169.924 28.501 169.924 29.101 L 169.924 63.001 Q 169.924 64.901 168.624 66.251 Q 167.324 67.601 165.424 67.601 L 162.624 67.601 A 4.424 4.424 0 0 1 159.416 66.293 A 5.392 5.392 0 0 1 159.374 66.251 A 4.425 4.425 0 0 1 158.024 63.06 A 5.312 5.312 0 0 1 158.024 63.001 L 158.024 27.001 Q 158.024 23.901 159.574 21.351 Q 161.124 18.801 163.624 17.301 A 10.61 10.61 0 0 1 168.934 15.804 A 12.642 12.642 0 0 1 169.224 15.801 L 183.124 15.801 A 11.012 11.012 0 0 1 187.102 16.51 A 10.359 10.359 0 0 1 188.724 17.301 Q 191.224 18.801 192.724 21.351 Q 194.224 23.901 194.224 27.001 Z M 79.624 13.301 L 79.624 27.901 Q 79.624 31.501 77.874 34.501 Q 76.124 37.501 73.124 39.301 Q 70.124 41.101 66.424 41.101 L 48.024 41.101 Q 47.08 41.101 46.878 41.905 A 2.046 2.046 0 0 0 46.824 42.401 L 46.824 63.001 A 4.424 4.424 0 0 1 45.515 66.208 A 5.392 5.392 0 0 1 45.474 66.251 A 4.425 4.425 0 0 1 42.283 67.6 A 5.312 5.312 0 0 1 42.224 67.601 L 39.524 67.601 A 4.424 4.424 0 0 1 36.316 66.293 A 5.392 5.392 0 0 1 36.274 66.251 A 4.425 4.425 0 0 1 34.924 63.06 A 5.312 5.312 0 0 1 34.924 63.001 L 34.924 4.601 A 4.851 4.851 0 0 1 35.201 2.932 A 4.269 4.269 0 0 1 36.274 1.301 Q 37.624 0.001 39.524 0.001 L 66.424 0.001 A 13.067 13.067 0 0 1 71.468 0.966 A 12.503 12.503 0 0 1 73.124 1.801 Q 76.124 3.601 77.874 6.601 A 12.948 12.948 0 0 1 79.617 12.841 A 15.376 15.376 0 0 1 79.624 13.301 Z M 149.924 27.001 L 149.924 56.401 A 11.197 11.197 0 0 1 148.895 61.229 A 11.071 11.071 0 0 1 146.674 64.351 A 10.682 10.682 0 0 1 138.967 67.6 A 12.937 12.937 0 0 1 138.824 67.601 L 124.924 67.601 A 10.854 10.854 0 0 1 117.075 64.401 A 13.233 13.233 0 0 1 117.024 64.351 A 10.709 10.709 0 0 1 113.725 56.584 A 13.269 13.269 0 0 1 113.724 56.401 L 113.724 45.501 A 10.594 10.594 0 0 1 114.36 41.796 A 9.81 9.81 0 0 1 115.274 39.951 Q 116.824 37.501 119.324 36.001 A 10.61 10.61 0 0 1 124.634 34.504 A 12.642 12.642 0 0 1 124.924 34.501 L 136.724 34.501 A 1.286 1.286 0 0 0 137.38 34.316 A 1.836 1.836 0 0 0 137.674 34.101 Q 138.124 33.701 138.124 33.101 L 138.124 29.101 A 1.276 1.276 0 0 0 137.728 28.151 A 1.567 1.567 0 0 0 137.674 28.101 A 1.78 1.78 0 0 0 137.322 27.853 A 1.269 1.269 0 0 0 136.724 27.701 L 124.924 27.701 Q 123.024 27.701 121.674 26.401 Q 120.324 25.101 120.324 23.201 L 120.324 20.501 Q 120.324 18.501 121.674 17.151 A 4.425 4.425 0 0 1 124.864 15.801 A 5.312 5.312 0 0 1 124.924 15.801 L 138.824 15.801 A 11.012 11.012 0 0 1 142.802 16.51 A 10.359 10.359 0 0 1 144.424 17.301 Q 146.924 18.801 148.424 21.351 Q 149.924 23.901 149.924 27.001 Z M 238.524 27.001 L 238.524 37.901 Q 238.524 40.901 237.024 43.451 Q 235.524 46.001 233.024 47.551 Q 230.524 49.101 227.424 49.101 L 215.624 49.101 A 1.447 1.447 0 0 0 214.887 49.306 A 1.91 1.91 0 0 0 214.674 49.451 Q 214.224 49.801 214.224 50.301 L 214.224 54.501 A 1.084 1.084 0 0 0 214.456 55.168 A 1.619 1.619 0 0 0 214.674 55.401 A 1.78 1.78 0 0 0 215.025 55.648 A 1.269 1.269 0 0 0 215.624 55.801 L 227.424 55.801 Q 229.324 55.801 230.674 57.101 A 4.348 4.348 0 0 1 232.021 60.215 A 5.784 5.784 0 0 1 232.024 60.401 L 232.024 63.001 A 4.424 4.424 0 0 1 230.715 66.208 A 5.392 5.392 0 0 1 230.674 66.251 A 4.425 4.425 0 0 1 227.483 67.6 A 5.312 5.312 0 0 1 227.424 67.601 L 213.524 67.601 A 10.854 10.854 0 0 1 205.675 64.401 A 13.233 13.233 0 0 1 205.624 64.351 A 10.709 10.709 0 0 1 202.325 56.584 A 13.269 13.269 0 0 1 202.324 56.401 L 202.324 27.001 Q 202.324 23.901 203.874 21.401 Q 205.424 18.901 207.924 17.351 Q 210.424 15.801 213.524 15.801 L 227.424 15.801 Q 230.524 15.801 233.024 17.351 Q 235.524 18.901 237.024 21.401 A 10.61 10.61 0 0 1 238.52 26.711 A 12.642 12.642 0 0 1 238.524 27.001 Z M 105.824 60.401 L 105.824 63.001 A 4.424 4.424 0 0 1 104.515 66.208 A 5.392 5.392 0 0 1 104.474 66.251 A 4.425 4.425 0 0 1 101.283 67.6 A 5.312 5.312 0 0 1 101.224 67.601 L 98.724 67.601 A 10.854 10.854 0 0 1 90.875 64.401 A 13.233 13.233 0 0 1 90.824 64.351 A 10.709 10.709 0 0 1 87.525 56.584 A 13.269 13.269 0 0 1 87.524 56.401 L 87.524 4.601 A 4.851 4.851 0 0 1 87.801 2.932 A 4.269 4.269 0 0 1 88.874 1.301 Q 90.224 0.001 92.124 0.001 L 94.924 0.001 Q 96.824 0.001 98.174 1.301 A 4.348 4.348 0 0 1 99.521 4.415 A 5.784 5.784 0 0 1 99.524 4.601 L 99.524 54.501 Q 99.524 55.801 100.724 55.801 L 101.224 55.801 Q 103.124 55.801 104.474 57.101 A 4.348 4.348 0 0 1 105.821 60.215 A 5.784 5.784 0 0 1 105.824 60.401 Z M 276.324 20.501 L 276.324 23.201 A 4.571 4.571 0 0 1 275.957 25.049 A 4.385 4.385 0 0 1 275.024 26.401 Q 273.724 27.701 271.824 27.701 L 259.924 27.701 Q 258.897 27.701 258.681 28.573 A 2.201 2.201 0 0 0 258.624 29.101 L 258.624 63.001 A 4.424 4.424 0 0 1 257.315 66.208 A 5.392 5.392 0 0 1 257.274 66.251 A 4.425 4.425 0 0 1 254.083 67.6 A 5.312 5.312 0 0 1 254.024 67.601 L 251.224 67.601 A 4.389 4.389 0 0 1 249.251 67.162 A 4.423 4.423 0 0 1 248.024 66.251 Q 246.724 64.901 246.724 63.001 L 246.724 27.001 Q 246.724 23.901 248.224 21.351 Q 249.724 18.801 252.224 17.301 A 10.61 10.61 0 0 1 257.534 15.804 A 12.642 12.642 0 0 1 257.824 15.801 L 271.824 15.801 A 4.389 4.389 0 0 1 273.796 16.24 A 4.423 4.423 0 0 1 275.024 17.151 A 4.604 4.604 0 0 1 276.321 20.313 A 6.015 6.015 0 0 1 276.324 20.501 Z M 25.624 48.401 L 16.724 57.301 A 4.284 4.284 0 0 1 13.631 58.6 A 5.232 5.232 0 0 1 13.574 58.601 Q 11.724 58.601 10.324 57.301 L 1.424 48.401 A 5.522 5.522 0 0 1 0.563 47.31 Q -0.488 45.528 0.424 43.401 A 5.163 5.163 0 0 1 1.376 41.895 Q 2.404 40.793 4.036 40.629 A 5.885 5.885 0 0 1 4.624 40.601 L 6.324 40.601 Q 7.355 40.601 7.568 39.782 A 1.915 1.915 0 0 0 7.624 39.301 L 7.624 27.601 Q 7.624 26.569 6.805 26.356 A 1.915 1.915 0 0 0 6.324 26.301 L 4.624 26.301 A 4.937 4.937 0 0 1 2.83 25.992 Q 1.539 25.492 0.767 24.184 A 5.994 5.994 0 0 1 0.424 23.501 A 5.498 5.498 0 0 1 0.106 22.531 Q -0.388 20.312 1.424 18.501 L 10.324 9.601 A 4.915 4.915 0 0 1 11.722 8.602 A 4.332 4.332 0 0 1 13.574 8.201 Q 15.424 8.201 16.724 9.601 L 25.624 18.501 A 5.522 5.522 0 0 1 26.484 19.592 Q 27.535 21.373 26.624 23.501 A 5.163 5.163 0 0 1 25.671 25.006 Q 24.643 26.109 23.011 26.272 A 5.885 5.885 0 0 1 22.424 26.301 L 20.724 26.301 Q 19.692 26.301 19.479 27.119 A 1.915 1.915 0 0 0 19.424 27.601 L 19.424 39.301 Q 19.424 40.332 20.242 40.545 A 1.915 1.915 0 0 0 20.724 40.601 L 22.424 40.601 A 4.937 4.937 0 0 1 24.217 40.909 Q 25.509 41.409 26.28 42.718 A 5.994 5.994 0 0 1 26.624 43.401 A 5.498 5.498 0 0 1 26.941 44.37 Q 27.435 46.589 25.624 48.401 Z M 67.824 27.901 L 67.824 13.301 A 2.015 2.015 0 0 0 67.754 12.747 Q 67.576 12.125 66.942 11.96 A 2.063 2.063 0 0 0 66.424 11.901 L 48.024 11.901 Q 47.08 11.901 46.878 12.705 A 2.046 2.046 0 0 0 46.824 13.201 L 46.824 27.901 Q 46.824 29.201 48.024 29.201 L 66.424 29.201 A 2.187 2.187 0 0 0 66.96 29.141 Q 67.658 28.963 67.792 28.262 A 1.933 1.933 0 0 0 67.824 27.901 Z M 138.124 54.501 L 138.124 47.601 A 1.084 1.084 0 0 0 137.891 46.934 A 1.619 1.619 0 0 0 137.674 46.701 A 1.78 1.78 0 0 0 137.322 46.453 A 1.269 1.269 0 0 0 136.724 46.301 L 127.024 46.301 A 1.286 1.286 0 0 0 126.367 46.485 A 1.836 1.836 0 0 0 126.074 46.701 A 1.553 1.553 0 0 0 125.813 46.994 A 1.069 1.069 0 0 0 125.624 47.601 L 125.624 54.501 A 1.084 1.084 0 0 0 125.856 55.168 A 1.619 1.619 0 0 0 126.074 55.401 A 1.78 1.78 0 0 0 126.425 55.648 A 1.269 1.269 0 0 0 127.024 55.801 L 136.724 55.801 A 1.286 1.286 0 0 0 137.38 55.616 A 1.836 1.836 0 0 0 137.674 55.401 A 1.553 1.553 0 0 0 137.934 55.107 A 1.069 1.069 0 0 0 138.124 54.501 Z M 226.724 35.901 L 226.724 29.101 A 1.276 1.276 0 0 0 226.328 28.151 A 1.567 1.567 0 0 0 226.274 28.101 A 1.78 1.78 0 0 0 225.922 27.853 A 1.269 1.269 0 0 0 225.324 27.701 L 215.624 27.701 A 1.286 1.286 0 0 0 214.967 27.885 A 1.836 1.836 0 0 0 214.674 28.101 Q 214.224 28.501 214.224 29.101 L 214.224 35.901 Q 214.224 36.213 214.497 36.525 A 2.015 2.015 0 0 0 214.674 36.701 A 1.78 1.78 0 0 0 215.025 36.948 A 1.269 1.269 0 0 0 215.624 37.101 L 225.324 37.101 A 1.286 1.286 0 0 0 225.98 36.916 A 1.836 1.836 0 0 0 226.274 36.701 A 1.914 1.914 0 0 0 226.491 36.476 Q 226.596 36.346 226.654 36.216 A 0.772 0.772 0 0 0 226.724 35.901 Z" vector-effect="non-scaling-stroke"/></g></svg>